<svg xmlns="http://www.w3.org/2000/svg" width="1920" height="1080" viewBox="0 0 1920 1080">
  <defs>
    <radialGradient id="g" cx="50%" cy="50%" r="80%">
      <stop offset="0%" stop-color="#ffffff" stop-opacity="0.8"/>
      <stop offset="100%" stop-color="#ffffff" stop-opacity="0"/>
    </radialGradient>
  </defs>
  <rect width="100%" height="100%" fill="none"/>
  <g fill="#fff" opacity="0.8">
    <circle cx="100" cy="120" r="1"/>
    <circle cx="340" cy="240" r="1.2"/>
    <circle cx="580" cy="60" r="1"/>
    <circle cx="780" cy="300" r="1.3"/>
    <circle cx="1120" cy="180" r="1"/>
    <circle cx="1420" cy="140" r="1.1"/>
    <circle cx="1650" cy="260" r="1.2"/>
    <circle cx="180" cy="420" r="1.2"/>
    <circle cx="520" cy="520" r="1"/>
    <circle cx="960" cy="420" r="1.3"/>
    <circle cx="1260" cy="520" r="1"/>
    <circle cx="1600" cy="480" r="1.1"/>
    <circle cx="300" cy="780" r="1.2"/>
    <circle cx="700" cy="880" r="1.1"/>
    <circle cx="1100" cy="760" r="1.2"/>
    <circle cx="1500" cy="860" r="1.3"/>
  </g>
  <circle cx="400" cy="200" r="80" fill="url(#g)" opacity="0.2"/>
  <circle cx="1300" cy="300" r="60" fill="url(#g)" opacity="0.2"/>
  <circle cx="900" cy="800" r="70" fill="url(#g)" opacity="0.2"/>
</svg>


